# xmcd CD database file
#
# Track frame offsets:
#	150
#	17230
#	33473
#	47281
#	63806
#	77515
#	94666
#	106598
#	119841
#	134699
#	145979
#	159837
#
# Disc length: 2333 seconds
#
# Revision: 4
# Processed by: cddbd v1.5.2PL0 Copyright (c) Steve Scherf et al.
# Submitted via: CDex 2.04
#
DISCID=94091b0c
DTITLE=Holly Golightly - Slowly But Surely
DYEAR=2004
DGENRE=Alternative
TTITLE0=On The Fire
TTITLE1=The Luckiest Girl
TTITLE2=My Love Is
TTITLE3=Keeping On
TTITLE4=Always And Forever
TTITLE5=Dear John
TTITLE6=In Your Head
TTITLE7=Slowly But Surely
TTITLE8=Through Sun And Wine
TTITLE9=All Grown Up
TTITLE10=Won't Come Between
TTITLE11=Mother Earth
EXTD=YEAR: 2004
EXTT0=
EXTT1=
EXTT2=
EXTT3=
EXTT4=
EXTT5=
EXTT6=
EXTT7=
EXTT8=
EXTT9=
EXTT10=
EXTT11=
PLAYORDER=
